<mxfile host="Electron" agent="Mozilla/5.0 (Windows NT 10.0; Win64; x64) AppleWebKit/537.36 (KHTML, like Gecko) draw.io/25.0.2 Chrome/128.0.6613.186 Electron/32.2.5 Safari/537.36" version="25.0.2">
  <diagram name="Page-1" id="DJpq0EOmGG4-bxDo2zkG">
    <mxGraphModel dx="2583" dy="2413" grid="1" gridSize="10" guides="1" tooltips="1" connect="1" arrows="1" fold="1" page="1" pageScale="1" pageWidth="850" pageHeight="1100" math="0" shadow="0">
      <root>
        <mxCell id="0" />
        <mxCell id="1" parent="0" />
        <mxCell id="_hqQ3dYMvMMhXEorZVay-1" value="&lt;i&gt;&amp;lt;&amp;lt;interface&amp;gt;&amp;gt;&lt;/i&gt;&lt;div&gt;&lt;i&gt;Payment&lt;/i&gt;&lt;/div&gt;" style="swimlane;fontStyle=1;align=center;verticalAlign=top;childLayout=stackLayout;horizontal=1;startSize=40;horizontalStack=0;resizeParent=1;resizeParentMax=0;resizeLast=0;collapsible=1;marginBottom=0;whiteSpace=wrap;html=1;" vertex="1" parent="1">
          <mxGeometry x="270" y="-50" width="160" height="152" as="geometry" />
        </mxCell>
        <mxCell id="_hqQ3dYMvMMhXEorZVay-3" value="" style="line;strokeWidth=1;fillColor=none;align=left;verticalAlign=middle;spacingTop=-1;spacingLeft=3;spacingRight=3;rotatable=0;labelPosition=right;points=[];portConstraint=eastwest;strokeColor=inherit;" vertex="1" parent="_hqQ3dYMvMMhXEorZVay-1">
          <mxGeometry y="40" width="160" height="8" as="geometry" />
        </mxCell>
        <mxCell id="_hqQ3dYMvMMhXEorZVay-4" value="+process()" style="text;strokeColor=none;fillColor=none;align=left;verticalAlign=top;spacingLeft=4;spacingRight=4;overflow=hidden;rotatable=0;points=[[0,0.5],[1,0.5]];portConstraint=eastwest;whiteSpace=wrap;html=1;" vertex="1" parent="_hqQ3dYMvMMhXEorZVay-1">
          <mxGeometry y="48" width="160" height="26" as="geometry" />
        </mxCell>
        <mxCell id="_hqQ3dYMvMMhXEorZVay-5" value="+getAmount() : float" style="text;strokeColor=none;fillColor=none;align=left;verticalAlign=top;spacingLeft=4;spacingRight=4;overflow=hidden;rotatable=0;points=[[0,0.5],[1,0.5]];portConstraint=eastwest;whiteSpace=wrap;html=1;" vertex="1" parent="_hqQ3dYMvMMhXEorZVay-1">
          <mxGeometry y="74" width="160" height="26" as="geometry" />
        </mxCell>
        <mxCell id="_hqQ3dYMvMMhXEorZVay-6" value="+getDescription() : string" style="text;strokeColor=none;fillColor=none;align=left;verticalAlign=top;spacingLeft=4;spacingRight=4;overflow=hidden;rotatable=0;points=[[0,0.5],[1,0.5]];portConstraint=eastwest;whiteSpace=wrap;html=1;" vertex="1" parent="_hqQ3dYMvMMhXEorZVay-1">
          <mxGeometry y="100" width="160" height="26" as="geometry" />
        </mxCell>
        <mxCell id="_hqQ3dYMvMMhXEorZVay-7" value="+getStatus() : string" style="text;strokeColor=none;fillColor=none;align=left;verticalAlign=top;spacingLeft=4;spacingRight=4;overflow=hidden;rotatable=0;points=[[0,0.5],[1,0.5]];portConstraint=eastwest;whiteSpace=wrap;html=1;" vertex="1" parent="_hqQ3dYMvMMhXEorZVay-1">
          <mxGeometry y="126" width="160" height="26" as="geometry" />
        </mxCell>
        <mxCell id="_hqQ3dYMvMMhXEorZVay-9" value="BasePayment" style="swimlane;fontStyle=1;align=center;verticalAlign=top;childLayout=stackLayout;horizontal=1;startSize=40;horizontalStack=0;resizeParent=1;resizeParentMax=0;resizeLast=0;collapsible=1;marginBottom=0;whiteSpace=wrap;html=1;" vertex="1" parent="1">
          <mxGeometry x="-10" y="260" width="310" height="306" as="geometry" />
        </mxCell>
        <mxCell id="_hqQ3dYMvMMhXEorZVay-15" value="-amount: float" style="text;strokeColor=none;fillColor=none;align=left;verticalAlign=top;spacingLeft=4;spacingRight=4;overflow=hidden;rotatable=0;points=[[0,0.5],[1,0.5]];portConstraint=eastwest;whiteSpace=wrap;html=1;" vertex="1" parent="_hqQ3dYMvMMhXEorZVay-9">
          <mxGeometry y="40" width="310" height="26" as="geometry" />
        </mxCell>
        <mxCell id="_hqQ3dYMvMMhXEorZVay-16" value="-description: string" style="text;strokeColor=none;fillColor=none;align=left;verticalAlign=top;spacingLeft=4;spacingRight=4;overflow=hidden;rotatable=0;points=[[0,0.5],[1,0.5]];portConstraint=eastwest;whiteSpace=wrap;html=1;" vertex="1" parent="_hqQ3dYMvMMhXEorZVay-9">
          <mxGeometry y="66" width="310" height="24" as="geometry" />
        </mxCell>
        <mxCell id="_hqQ3dYMvMMhXEorZVay-17" value="-orderId: string" style="text;strokeColor=none;fillColor=none;align=left;verticalAlign=top;spacingLeft=4;spacingRight=4;overflow=hidden;rotatable=0;points=[[0,0.5],[1,0.5]];portConstraint=eastwest;whiteSpace=wrap;html=1;" vertex="1" parent="_hqQ3dYMvMMhXEorZVay-9">
          <mxGeometry y="90" width="310" height="26" as="geometry" />
        </mxCell>
        <mxCell id="_hqQ3dYMvMMhXEorZVay-11" value="-status: string" style="text;strokeColor=none;fillColor=none;align=left;verticalAlign=top;spacingLeft=4;spacingRight=4;overflow=hidden;rotatable=0;points=[[0,0.5],[1,0.5]];portConstraint=eastwest;whiteSpace=wrap;html=1;" vertex="1" parent="_hqQ3dYMvMMhXEorZVay-9">
          <mxGeometry y="116" width="310" height="26" as="geometry" />
        </mxCell>
        <mxCell id="_hqQ3dYMvMMhXEorZVay-10" value="" style="line;strokeWidth=1;fillColor=none;align=left;verticalAlign=middle;spacingTop=-1;spacingLeft=3;spacingRight=3;rotatable=0;labelPosition=right;points=[];portConstraint=eastwest;strokeColor=inherit;" vertex="1" parent="_hqQ3dYMvMMhXEorZVay-9">
          <mxGeometry y="142" width="310" height="8" as="geometry" />
        </mxCell>
        <mxCell id="_hqQ3dYMvMMhXEorZVay-12" value="+BasePayment(amount: float, description: string)" style="text;strokeColor=none;fillColor=none;align=left;verticalAlign=top;spacingLeft=4;spacingRight=4;overflow=hidden;rotatable=0;points=[[0,0.5],[1,0.5]];portConstraint=eastwest;whiteSpace=wrap;html=1;" vertex="1" parent="_hqQ3dYMvMMhXEorZVay-9">
          <mxGeometry y="150" width="310" height="26" as="geometry" />
        </mxCell>
        <mxCell id="_hqQ3dYMvMMhXEorZVay-13" value="+process()" style="text;strokeColor=none;fillColor=none;align=left;verticalAlign=top;spacingLeft=4;spacingRight=4;overflow=hidden;rotatable=0;points=[[0,0.5],[1,0.5]];portConstraint=eastwest;whiteSpace=wrap;html=1;" vertex="1" parent="_hqQ3dYMvMMhXEorZVay-9">
          <mxGeometry y="176" width="310" height="26" as="geometry" />
        </mxCell>
        <mxCell id="_hqQ3dYMvMMhXEorZVay-14" value="+getAmount() : float" style="text;strokeColor=none;fillColor=none;align=left;verticalAlign=top;spacingLeft=4;spacingRight=4;overflow=hidden;rotatable=0;points=[[0,0.5],[1,0.5]];portConstraint=eastwest;whiteSpace=wrap;html=1;" vertex="1" parent="_hqQ3dYMvMMhXEorZVay-9">
          <mxGeometry y="202" width="310" height="26" as="geometry" />
        </mxCell>
        <mxCell id="_hqQ3dYMvMMhXEorZVay-18" value="+getDescription() : string" style="text;strokeColor=none;fillColor=none;align=left;verticalAlign=top;spacingLeft=4;spacingRight=4;overflow=hidden;rotatable=0;points=[[0,0.5],[1,0.5]];portConstraint=eastwest;whiteSpace=wrap;html=1;" vertex="1" parent="_hqQ3dYMvMMhXEorZVay-9">
          <mxGeometry y="228" width="310" height="26" as="geometry" />
        </mxCell>
        <mxCell id="_hqQ3dYMvMMhXEorZVay-19" value="+getStatus() : string" style="text;strokeColor=none;fillColor=none;align=left;verticalAlign=top;spacingLeft=4;spacingRight=4;overflow=hidden;rotatable=0;points=[[0,0.5],[1,0.5]];portConstraint=eastwest;whiteSpace=wrap;html=1;" vertex="1" parent="_hqQ3dYMvMMhXEorZVay-9">
          <mxGeometry y="254" width="310" height="26" as="geometry" />
        </mxCell>
        <mxCell id="_hqQ3dYMvMMhXEorZVay-21" value="+setStatus() : string" style="text;strokeColor=none;fillColor=none;align=left;verticalAlign=top;spacingLeft=4;spacingRight=4;overflow=hidden;rotatable=0;points=[[0,0.5],[1,0.5]];portConstraint=eastwest;whiteSpace=wrap;html=1;" vertex="1" parent="_hqQ3dYMvMMhXEorZVay-9">
          <mxGeometry y="280" width="310" height="26" as="geometry" />
        </mxCell>
        <mxCell id="_hqQ3dYMvMMhXEorZVay-22" value="PaymentDecorator" style="swimlane;fontStyle=1;align=center;verticalAlign=top;childLayout=stackLayout;horizontal=1;startSize=40;horizontalStack=0;resizeParent=1;resizeParentMax=0;resizeLast=0;collapsible=1;marginBottom=0;whiteSpace=wrap;html=1;" vertex="1" parent="1">
          <mxGeometry x="410" y="250" width="310" height="204" as="geometry" />
        </mxCell>
        <mxCell id="_hqQ3dYMvMMhXEorZVay-23" value="#payment: IPayment" style="text;strokeColor=none;fillColor=none;align=left;verticalAlign=top;spacingLeft=4;spacingRight=4;overflow=hidden;rotatable=0;points=[[0,0.5],[1,0.5]];portConstraint=eastwest;whiteSpace=wrap;html=1;" vertex="1" parent="_hqQ3dYMvMMhXEorZVay-22">
          <mxGeometry y="40" width="310" height="26" as="geometry" />
        </mxCell>
        <mxCell id="_hqQ3dYMvMMhXEorZVay-27" value="" style="line;strokeWidth=1;fillColor=none;align=left;verticalAlign=middle;spacingTop=-1;spacingLeft=3;spacingRight=3;rotatable=0;labelPosition=right;points=[];portConstraint=eastwest;strokeColor=inherit;" vertex="1" parent="_hqQ3dYMvMMhXEorZVay-22">
          <mxGeometry y="66" width="310" height="8" as="geometry" />
        </mxCell>
        <mxCell id="_hqQ3dYMvMMhXEorZVay-28" value="+PaymentDecorator(payment: IPayment)" style="text;strokeColor=none;fillColor=none;align=left;verticalAlign=top;spacingLeft=4;spacingRight=4;overflow=hidden;rotatable=0;points=[[0,0.5],[1,0.5]];portConstraint=eastwest;whiteSpace=wrap;html=1;fontStyle=2" vertex="1" parent="_hqQ3dYMvMMhXEorZVay-22">
          <mxGeometry y="74" width="310" height="26" as="geometry" />
        </mxCell>
        <mxCell id="_hqQ3dYMvMMhXEorZVay-29" value="+process()" style="text;strokeColor=none;fillColor=none;align=left;verticalAlign=top;spacingLeft=4;spacingRight=4;overflow=hidden;rotatable=0;points=[[0,0.5],[1,0.5]];portConstraint=eastwest;whiteSpace=wrap;html=1;fontStyle=2" vertex="1" parent="_hqQ3dYMvMMhXEorZVay-22">
          <mxGeometry y="100" width="310" height="26" as="geometry" />
        </mxCell>
        <mxCell id="_hqQ3dYMvMMhXEorZVay-30" value="+getAmount() : float" style="text;strokeColor=none;fillColor=none;align=left;verticalAlign=top;spacingLeft=4;spacingRight=4;overflow=hidden;rotatable=0;points=[[0,0.5],[1,0.5]];portConstraint=eastwest;whiteSpace=wrap;html=1;fontStyle=2" vertex="1" parent="_hqQ3dYMvMMhXEorZVay-22">
          <mxGeometry y="126" width="310" height="26" as="geometry" />
        </mxCell>
        <mxCell id="_hqQ3dYMvMMhXEorZVay-31" value="+getDescription() : string" style="text;strokeColor=none;fillColor=none;align=left;verticalAlign=top;spacingLeft=4;spacingRight=4;overflow=hidden;rotatable=0;points=[[0,0.5],[1,0.5]];portConstraint=eastwest;whiteSpace=wrap;html=1;fontStyle=2" vertex="1" parent="_hqQ3dYMvMMhXEorZVay-22">
          <mxGeometry y="152" width="310" height="26" as="geometry" />
        </mxCell>
        <mxCell id="_hqQ3dYMvMMhXEorZVay-32" value="+getStatus() : string" style="text;strokeColor=none;fillColor=none;align=left;verticalAlign=top;spacingLeft=4;spacingRight=4;overflow=hidden;rotatable=0;points=[[0,0.5],[1,0.5]];portConstraint=eastwest;whiteSpace=wrap;html=1;fontStyle=2" vertex="1" parent="_hqQ3dYMvMMhXEorZVay-22">
          <mxGeometry y="178" width="310" height="26" as="geometry" />
        </mxCell>
        <mxCell id="_hqQ3dYMvMMhXEorZVay-34" value="MidtransPaymentDecorator" style="swimlane;fontStyle=1;align=center;verticalAlign=top;childLayout=stackLayout;horizontal=1;startSize=40;horizontalStack=0;resizeParent=1;resizeParentMax=0;resizeLast=0;collapsible=1;marginBottom=0;whiteSpace=wrap;html=1;" vertex="1" parent="1">
          <mxGeometry x="390" y="630" width="310" height="280" as="geometry" />
        </mxCell>
        <mxCell id="_hqQ3dYMvMMhXEorZVay-35" value="-snapToken: string" style="text;strokeColor=none;fillColor=none;align=left;verticalAlign=top;spacingLeft=4;spacingRight=4;overflow=hidden;rotatable=0;points=[[0,0.5],[1,0.5]];portConstraint=eastwest;whiteSpace=wrap;html=1;" vertex="1" parent="_hqQ3dYMvMMhXEorZVay-34">
          <mxGeometry y="40" width="310" height="26" as="geometry" />
        </mxCell>
        <mxCell id="_hqQ3dYMvMMhXEorZVay-37" value="-serverKey: string" style="text;strokeColor=none;fillColor=none;align=left;verticalAlign=top;spacingLeft=4;spacingRight=4;overflow=hidden;rotatable=0;points=[[0,0.5],[1,0.5]];portConstraint=eastwest;whiteSpace=wrap;html=1;" vertex="1" parent="_hqQ3dYMvMMhXEorZVay-34">
          <mxGeometry y="66" width="310" height="26" as="geometry" />
        </mxCell>
        <mxCell id="_hqQ3dYMvMMhXEorZVay-36" value="-clientKey: string" style="text;strokeColor=none;fillColor=none;align=left;verticalAlign=top;spacingLeft=4;spacingRight=4;overflow=hidden;rotatable=0;points=[[0,0.5],[1,0.5]];portConstraint=eastwest;whiteSpace=wrap;html=1;" vertex="1" parent="_hqQ3dYMvMMhXEorZVay-34">
          <mxGeometry y="92" width="310" height="24" as="geometry" />
        </mxCell>
        <mxCell id="_hqQ3dYMvMMhXEorZVay-39" value="" style="line;strokeWidth=1;fillColor=none;align=left;verticalAlign=middle;spacingTop=-1;spacingLeft=3;spacingRight=3;rotatable=0;labelPosition=right;points=[];portConstraint=eastwest;strokeColor=inherit;" vertex="1" parent="_hqQ3dYMvMMhXEorZVay-34">
          <mxGeometry y="116" width="310" height="8" as="geometry" />
        </mxCell>
        <mxCell id="_hqQ3dYMvMMhXEorZVay-40" value="+MidtransPaymentDecorator(payment: Payment)" style="text;strokeColor=none;fillColor=none;align=left;verticalAlign=top;spacingLeft=4;spacingRight=4;overflow=hidden;rotatable=0;points=[[0,0.5],[1,0.5]];portConstraint=eastwest;whiteSpace=wrap;html=1;" vertex="1" parent="_hqQ3dYMvMMhXEorZVay-34">
          <mxGeometry y="124" width="310" height="26" as="geometry" />
        </mxCell>
        <mxCell id="_hqQ3dYMvMMhXEorZVay-41" value="+process()" style="text;strokeColor=none;fillColor=none;align=left;verticalAlign=top;spacingLeft=4;spacingRight=4;overflow=hidden;rotatable=0;points=[[0,0.5],[1,0.5]];portConstraint=eastwest;whiteSpace=wrap;html=1;" vertex="1" parent="_hqQ3dYMvMMhXEorZVay-34">
          <mxGeometry y="150" width="310" height="26" as="geometry" />
        </mxCell>
        <mxCell id="_hqQ3dYMvMMhXEorZVay-42" value="+generateSnapToken() : string" style="text;strokeColor=none;fillColor=none;align=left;verticalAlign=top;spacingLeft=4;spacingRight=4;overflow=hidden;rotatable=0;points=[[0,0.5],[1,0.5]];portConstraint=eastwest;whiteSpace=wrap;html=1;" vertex="1" parent="_hqQ3dYMvMMhXEorZVay-34">
          <mxGeometry y="176" width="310" height="26" as="geometry" />
        </mxCell>
        <mxCell id="_hqQ3dYMvMMhXEorZVay-43" value="+handleCallback(response: array)" style="text;strokeColor=none;fillColor=none;align=left;verticalAlign=top;spacingLeft=4;spacingRight=4;overflow=hidden;rotatable=0;points=[[0,0.5],[1,0.5]];portConstraint=eastwest;whiteSpace=wrap;html=1;" vertex="1" parent="_hqQ3dYMvMMhXEorZVay-34">
          <mxGeometry y="202" width="310" height="26" as="geometry" />
        </mxCell>
        <mxCell id="_hqQ3dYMvMMhXEorZVay-44" value="+getPaymentStatus() : string" style="text;strokeColor=none;fillColor=none;align=left;verticalAlign=top;spacingLeft=4;spacingRight=4;overflow=hidden;rotatable=0;points=[[0,0.5],[1,0.5]];portConstraint=eastwest;whiteSpace=wrap;html=1;" vertex="1" parent="_hqQ3dYMvMMhXEorZVay-34">
          <mxGeometry y="228" width="310" height="26" as="geometry" />
        </mxCell>
        <mxCell id="_hqQ3dYMvMMhXEorZVay-45" value="-initializeMidtrans()" style="text;strokeColor=none;fillColor=none;align=left;verticalAlign=top;spacingLeft=4;spacingRight=4;overflow=hidden;rotatable=0;points=[[0,0.5],[1,0.5]];portConstraint=eastwest;whiteSpace=wrap;html=1;" vertex="1" parent="_hqQ3dYMvMMhXEorZVay-34">
          <mxGeometry y="254" width="310" height="26" as="geometry" />
        </mxCell>
        <mxCell id="_hqQ3dYMvMMhXEorZVay-46" value="NotificationDecorator" style="swimlane;fontStyle=1;align=center;verticalAlign=top;childLayout=stackLayout;horizontal=1;startSize=40;horizontalStack=0;resizeParent=1;resizeParentMax=0;resizeLast=0;collapsible=1;marginBottom=0;whiteSpace=wrap;html=1;" vertex="1" parent="1">
          <mxGeometry x="770" y="630" width="310" height="178" as="geometry" />
        </mxCell>
        <mxCell id="_hqQ3dYMvMMhXEorZVay-47" value="-userId: int" style="text;strokeColor=none;fillColor=none;align=left;verticalAlign=top;spacingLeft=4;spacingRight=4;overflow=hidden;rotatable=0;points=[[0,0.5],[1,0.5]];portConstraint=eastwest;whiteSpace=wrap;html=1;" vertex="1" parent="_hqQ3dYMvMMhXEorZVay-46">
          <mxGeometry y="40" width="310" height="26" as="geometry" />
        </mxCell>
        <mxCell id="_hqQ3dYMvMMhXEorZVay-50" value="" style="line;strokeWidth=1;fillColor=none;align=left;verticalAlign=middle;spacingTop=-1;spacingLeft=3;spacingRight=3;rotatable=0;labelPosition=right;points=[];portConstraint=eastwest;strokeColor=inherit;" vertex="1" parent="_hqQ3dYMvMMhXEorZVay-46">
          <mxGeometry y="66" width="310" height="8" as="geometry" />
        </mxCell>
        <mxCell id="_hqQ3dYMvMMhXEorZVay-51" value="+NotificationDecorator(payment: IPayment)" style="text;strokeColor=none;fillColor=none;align=left;verticalAlign=top;spacingLeft=4;spacingRight=4;overflow=hidden;rotatable=0;points=[[0,0.5],[1,0.5]];portConstraint=eastwest;whiteSpace=wrap;html=1;" vertex="1" parent="_hqQ3dYMvMMhXEorZVay-46">
          <mxGeometry y="74" width="310" height="26" as="geometry" />
        </mxCell>
        <mxCell id="_hqQ3dYMvMMhXEorZVay-52" value="+process()" style="text;strokeColor=none;fillColor=none;align=left;verticalAlign=top;spacingLeft=4;spacingRight=4;overflow=hidden;rotatable=0;points=[[0,0.5],[1,0.5]];portConstraint=eastwest;whiteSpace=wrap;html=1;" vertex="1" parent="_hqQ3dYMvMMhXEorZVay-46">
          <mxGeometry y="100" width="310" height="26" as="geometry" />
        </mxCell>
        <mxCell id="_hqQ3dYMvMMhXEorZVay-53" value="+sendNotification(message: string)" style="text;strokeColor=none;fillColor=none;align=left;verticalAlign=top;spacingLeft=4;spacingRight=4;overflow=hidden;rotatable=0;points=[[0,0.5],[1,0.5]];portConstraint=eastwest;whiteSpace=wrap;html=1;" vertex="1" parent="_hqQ3dYMvMMhXEorZVay-46">
          <mxGeometry y="126" width="310" height="26" as="geometry" />
        </mxCell>
        <mxCell id="_hqQ3dYMvMMhXEorZVay-54" value="+notifyPaymentStatus()" style="text;strokeColor=none;fillColor=none;align=left;verticalAlign=top;spacingLeft=4;spacingRight=4;overflow=hidden;rotatable=0;points=[[0,0.5],[1,0.5]];portConstraint=eastwest;whiteSpace=wrap;html=1;" vertex="1" parent="_hqQ3dYMvMMhXEorZVay-46">
          <mxGeometry y="152" width="310" height="26" as="geometry" />
        </mxCell>
        <mxCell id="_hqQ3dYMvMMhXEorZVay-57" value="" style="endArrow=block;dashed=1;endFill=0;endSize=12;html=1;rounded=0;" edge="1" parent="1" source="_hqQ3dYMvMMhXEorZVay-9" target="_hqQ3dYMvMMhXEorZVay-1">
          <mxGeometry width="160" relative="1" as="geometry">
            <mxPoint x="320" y="640" as="sourcePoint" />
            <mxPoint x="480" y="640" as="targetPoint" />
          </mxGeometry>
        </mxCell>
        <mxCell id="_hqQ3dYMvMMhXEorZVay-59" value="implements" style="edgeLabel;html=1;align=center;verticalAlign=middle;resizable=0;points=[];" vertex="1" connectable="0" parent="_hqQ3dYMvMMhXEorZVay-57">
          <mxGeometry x="-0.0073" y="4" relative="1" as="geometry">
            <mxPoint x="-1" as="offset" />
          </mxGeometry>
        </mxCell>
        <mxCell id="_hqQ3dYMvMMhXEorZVay-58" value="" style="endArrow=block;dashed=1;endFill=0;endSize=12;html=1;rounded=0;" edge="1" parent="1" source="_hqQ3dYMvMMhXEorZVay-22" target="_hqQ3dYMvMMhXEorZVay-1">
          <mxGeometry width="160" relative="1" as="geometry">
            <mxPoint x="236" y="270" as="sourcePoint" />
            <mxPoint x="320" y="112" as="targetPoint" />
          </mxGeometry>
        </mxCell>
        <mxCell id="_hqQ3dYMvMMhXEorZVay-60" value="implements" style="edgeLabel;html=1;align=center;verticalAlign=middle;resizable=0;points=[];" vertex="1" connectable="0" parent="_hqQ3dYMvMMhXEorZVay-58">
          <mxGeometry x="-0.0552" y="-3" relative="1" as="geometry">
            <mxPoint as="offset" />
          </mxGeometry>
        </mxCell>
        <mxCell id="_hqQ3dYMvMMhXEorZVay-61" value="" style="endArrow=open;html=1;endSize=12;startArrow=diamondThin;startSize=14;startFill=0;edgeStyle=orthogonalEdgeStyle;align=left;verticalAlign=bottom;rounded=0;" edge="1" parent="1" source="_hqQ3dYMvMMhXEorZVay-22" target="_hqQ3dYMvMMhXEorZVay-1">
          <mxGeometry x="-1" y="3" relative="1" as="geometry">
            <mxPoint x="290" y="330" as="sourcePoint" />
            <mxPoint x="450" y="330" as="targetPoint" />
            <Array as="points">
              <mxPoint x="760" y="352" />
              <mxPoint x="760" y="-20" />
            </Array>
          </mxGeometry>
        </mxCell>
        <mxCell id="_hqQ3dYMvMMhXEorZVay-62" value="Extends" style="endArrow=block;endSize=16;endFill=0;html=1;rounded=0;" edge="1" parent="1" source="_hqQ3dYMvMMhXEorZVay-34" target="_hqQ3dYMvMMhXEorZVay-22">
          <mxGeometry width="160" relative="1" as="geometry">
            <mxPoint x="340" y="460" as="sourcePoint" />
            <mxPoint x="500" y="460" as="targetPoint" />
          </mxGeometry>
        </mxCell>
        <mxCell id="_hqQ3dYMvMMhXEorZVay-63" value="Extends" style="endArrow=block;endSize=16;endFill=0;html=1;rounded=0;" edge="1" parent="1" source="_hqQ3dYMvMMhXEorZVay-46" target="_hqQ3dYMvMMhXEorZVay-22">
          <mxGeometry width="160" relative="1" as="geometry">
            <mxPoint x="562" y="640" as="sourcePoint" />
            <mxPoint x="570" y="464" as="targetPoint" />
          </mxGeometry>
        </mxCell>
      </root>
    </mxGraphModel>
  </diagram>
</mxfile>
